<?xml version="1.0" encoding="UTF-8"?>
<!DOCTYPE svg PUBLIC "-//W3C//DTD SVG 1.1//EN" "http://www.w3.org/Graphics/SVG/1.1/DTD/svg11.dtd">
<!-- Creator: CorelDRAW 2019 (64-Bit) -->
<svg xmlns="http://www.w3.org/2000/svg" xml:space="preserve" width="3.0478mm" height="1.6086mm" version="1.1" style="shape-rendering:geometricPrecision; text-rendering:geometricPrecision; image-rendering:optimizeQuality; fill-rule:evenodd; clip-rule:evenodd"
viewBox="0 0 304.78 160.86"
 xmlns:xlink="http://www.w3.org/1999/xlink">
 <defs>
  <style type="text/css">
   <![CDATA[
    .fil0 {fill:white}
   ]]>
  </style>
 </defs>
 <g id="Слой_x0020_1">
  <metadata id="CorelCorpID_0Corel-Layer"/>
  <path class="fil0" d="M219.66 129.32l0 0zm-88.11 -44.65c0,-2.39 1.12,-6.42 1.85,-8.27 2.93,-7.37 11.53,-12.57 18.99,-12.57 11.13,0 20.84,9.71 20.84,20.84 0,18.52 -23.43,27.61 -35.45,14.61 -3.17,-3.43 -6.23,-8.43 -6.23,-14.61zm-17.86 -2.38c0,10.14 1.12,16.38 6.9,24.66 6.44,9.21 17.84,16.41 29.42,16.41 12.3,0 18.19,-1.78 27.31,-9 3.09,-2.45 4.33,-3.89 6.63,-7.06 10.47,-14.47 9.48,-33.24 -1.87,-47.56 -2.45,-3.09 -3.89,-4.32 -7.06,-6.63 -26.38,-19.09 -61.33,2.01 -61.33,29.18zm-28.57 47.03l0 0zm4.76 -44.65c0,-4.23 0.99,-10.22 1.73,-13.75 0.85,-4.11 2.19,-8.14 3.83,-11.65 22.54,-48.37 89.65,-50.06 113.71,-0.41 5.97,12.32 6.8,26.24 4.02,39.56 -9.48,45.64 -68.89,66.3 -104.86,30.33 -11.3,-11.3 -18.43,-27.74 -18.43,-44.08zm129.78 -44.65c7.88,1.84 34.16,20.28 41.16,25.51 3.76,2.81 19.93,16.14 21.94,19.14 -1.94,2.9 -4.25,3.91 -6.7,6.39 -9.55,9.68 -46.77,36.01 -56.4,38.26 0.95,-3.55 13.11,-17.3 13.1,-44.65 -0.01,-27.48 -12.1,-40.92 -13.1,-44.65zm-134.54 89.3c-2.88,-0.67 -14.88,-7.55 -17.51,-9.28 -11.07,-7.33 -29.43,-19.3 -38.6,-28.68 -2.38,-2.44 -5.14,-3.92 -6.99,-6.69 1.94,-2.9 4.25,-3.91 6.7,-6.39 2.38,-2.42 4.6,-4.22 7.33,-6.36 17.51,-13.77 19.01,-15 39.89,-27.39 2.43,-1.44 6.46,-3.87 9.18,-4.51l-4.96 9.33c-12.22,24.42 -10.51,51.33 2.18,75.01 1.04,1.95 2.21,2.83 2.78,4.96zm134.54 -89.3l0 0zm-134.54 0l0 0zm-85.13 43.46c0,6.05 0.87,5.94 5.51,10.57l22.55 20.31c2.79,2.21 5.03,4.05 8,6.28 30.59,23.06 74.03,44.4 112.77,44.4 34.44,0 56.21,-7.88 84.53,-22.03l18.1 -10.48c10.21,-6.83 15.18,-10 24.95,-17.91l7.81 -6.48c4.87,-3.79 20.58,-17.52 20.58,-22.28 0,-6.05 -0.87,-5.94 -5.51,-10.57l-10.98 -10.44c-1.55,-1.3 -2.14,-2.16 -3.75,-3.4 -8.97,-6.87 -13.06,-10.65 -24.15,-18.71 -25.93,-18.83 -68.89,-38.43 -104.44,-38.43 -27.59,0 -51.76,5.79 -75.02,17.25 -10.51,5.18 -17.84,8.84 -27.62,15.24 -9.82,6.43 -15.76,10.52 -24.94,17.92l-11.58 9.85c-3.95,3.5 -16.81,14.24 -16.81,18.91z"/>
 </g>
</svg>
