<?xml version="1.0" encoding="UTF-8"?>
<!DOCTYPE svg PUBLIC "-//W3C//DTD SVG 1.1//EN" "http://www.w3.org/Graphics/SVG/1.1/DTD/svg11.dtd">
<!-- Creator: CorelDRAW 2019 (64-Bit) -->
<svg xmlns="http://www.w3.org/2000/svg" xml:space="preserve" width="2.7938mm" height="2.7938mm" version="1.1" style="shape-rendering:geometricPrecision; text-rendering:geometricPrecision; image-rendering:optimizeQuality; fill-rule:evenodd; clip-rule:evenodd"
viewBox="0 0 279.38 279.38"
 xmlns:xlink="http://www.w3.org/1999/xlink">
 <defs>
  <style type="text/css">
   <![CDATA[
    .fil0 {fill:#08345B}
   ]]>
  </style>
 </defs>
 <g id="Слой_x0020_1">
  <metadata id="CorelCorpID_0Corel-Layer"/>
  <g id="_2938701875056">
   <path class="fil0" d="M52.43 239.69c0,-7.91 3.76,-9.32 8.91,-14.46l155.14 -155.14c1.99,-1.99 3.58,-3.55 5.54,-5.56 3.27,-3.33 4.19,-3.64 9.21,-3.64 8.77,0 22.49,30.2 24.97,36.39 3.49,8.74 8.27,27.34 8.36,37.79 0.03,3.21 0.1,4.82 0.42,7.22 0.45,3.26 -0.43,4.01 -0.46,7.39 -0.21,20.07 -5.03,32.51 -12,49.36 -9.3,22.43 -30.38,43.7 -51.19,56.32 -5.98,3.63 -14.48,7.53 -21.02,9.96 -11.46,4.26 -25.97,7.72 -39.08,7.67 -2.96,-0.02 -4.6,0.46 -6.65,0.26 -8.15,-0.8 -9.21,0.38 -21.05,-1.75 -19.78,-3.56 -38.25,-11.32 -54.18,-22.95 -2.48,-1.82 -6.92,-4.92 -6.92,-8.86zm-11.1 -12.85c-5.36,0 -6.87,-1.87 -10.36,-6.59 -6.89,-9.32 -11.9,-18.74 -16.36,-29.81 -7.21,-17.91 -10.88,-44.69 -7.18,-66.45 7.33,-43.07 32.77,-78.24 72.26,-97.2 6.66,-3.19 14.95,-6.25 22.75,-8.22 4.33,-1.09 8.29,-1.87 12.59,-2.6l21.55 -1.86c14.79,0.5 31.75,3.5 44.99,8.79 7.47,2.98 14.08,6.18 20.78,10.19 4.36,2.61 16.03,9.41 16.03,14.94 0,7.91 -3.77,9.32 -8.91,14.46l-155.14 155.14c-4.73,4.73 -7.71,9.21 -13,9.21zm-45.58 -87.65c0,25.75 3.21,42.87 13.05,64.08 5.86,12.64 11.9,20.61 19.92,30.92 1.41,1.81 2.51,2.58 3.84,4.33 1.37,1.79 2.58,2.87 4.24,4.53 1.69,1.7 2.31,2.37 4.28,3.9 5.02,3.88 7.17,6.74 14.27,11.44 10.38,6.88 21.26,13.15 33.52,17.32 39.73,13.51 79.69,9.63 116.25,-10.71 9.5,-5.29 16.34,-10.89 24.22,-17.85 7.41,-6.55 14.6,-14.26 20.13,-22.53 4.17,-6.24 9.6,-14.42 12.48,-21.4 1.75,-4.24 3.45,-7.64 5,-11.95 10.99,-30.58 10.82,-63.77 0.15,-94.38 -3.86,-11.1 -10.5,-23.86 -17.42,-33.42 -1.28,-1.78 -2.18,-2.9 -3.51,-4.67l-7.78 -9.16c-1.83,-1.79 -2.41,-3.05 -4.07,-4.7l-13.19 -11.35c-23.28,-17.33 -51.42,-29.39 -81.05,-29.39 -26.43,0 -41.8,3.12 -63.69,12.87 -12.99,5.79 -20.79,12.01 -30.97,19.86l-8.91 8.03c-1.59,1.59 -2.65,2.54 -3.95,4.24 -3.05,4 -6.96,7.53 -11.22,13.9 -14.35,21.46 -25.59,47.01 -25.59,76.09z"/>
   <path class="fil0" d="M144.61 155.4c3.95,1.03 7.95,3.26 10.23,5.84 6.52,7.38 6.6,17.1 1.6,17.1 -2.71,0 -4.89,0.45 -5.78,-4.16 -0.62,-3.18 -0.57,-3.61 -2.52,-5.66 -2.21,-2.33 -6.65,-4.79 -10.98,-4.79 -1.75,0 -14.35,13.34 -15.2,14.61 1.9,1.26 1.95,2.07 4.26,3.33 6.56,3.57 12.04,1.61 19,3.79 6.04,1.9 14.72,8.36 14.72,16.25 0,8.03 -2.05,13.36 -9.58,17.88 -4.82,2.9 -6.03,2.11 -8.59,3.1 -3.18,1.23 -0.7,0.64 -2.3,3.54 -1.62,2.93 -6.09,2.96 -7.92,0.36 -1.51,-2.14 0.15,-2.63 -2.13,-3.71 -1.49,-0.7 -4.19,-0.41 -8.98,-3.29 -9.57,-5.75 -11.35,-16.69 -8.27,-19.5 2.28,-2.07 6.94,-1.89 7.98,2.85 0.67,3.09 0.74,4.24 2.55,6.22 8.15,8.9 27.9,3.89 27.9,-5.11 0,-12.35 -18.21,-8.79 -27.29,-13.04 -1.8,-0.84 -2.84,-1.57 -4.39,-2.61 -1.74,-1.17 -2.51,-2.07 -3.97,-3.05 -2.42,1.62 -29.63,29.34 -34.62,34.33 -1.68,1.68 -3.88,2.96 -4.53,5.4 2.06,0.55 4.15,2.4 5.84,3.52 1.75,1.16 3.93,2.51 5.84,3.5 24.43,12.7 49.77,14.22 76.61,8.81 4.34,-0.87 7.94,-1.87 11.81,-3.38 10.57,-4.14 19.29,-9.35 26.29,-18.7 5.58,-7.45 8.01,-15.37 8.01,-25.89 0,-16.24 -7.39,-37.48 -14.72,-49.56 -1.73,-2.86 -3.18,-5.07 -5.03,-7.82 -2.31,-3.46 -8.66,-11.8 -11.81,-13.9l-34.03 33.74z"/>
   <path class="fil0" d="M60.61 197.62l88.96 -88.67 -33.46 -0.16c-5.12,-0.03 -5.62,0.15 -9.16,1.94 -9.54,4.83 -17.55,12.42 -23.89,20.52 -7.34,9.38 -11.27,17.76 -15.69,28.72 -5.09,12.6 -6.76,23.47 -6.76,37.65z"/>
   <path class="fil0" d="M117.29 53.87c0,11.51 -24.05,-0.82 -14.8,10.13l9.54 11.5c0.81,1.07 2.37,3.5 4.09,3.5l38.57 0c2.15,0 12.21,-13.32 13.63,-15 9.24,-10.95 -14.8,1.38 -14.8,-10.13 0,-3.52 4.37,-9.93 0,-9.93l-36.23 0c-4.37,0 0,6.41 0,9.93z"/>
   <path class="fil0" d="M105.6 93.61c0,3.69 1.23,5.84 7.6,5.84l43.82 0c3.01,0 6.89,-4.49 8.18,-6.43 -0.57,-2.44 -1.69,-4.09 -4.67,-4.09l-50.84 0c-0.95,0 -4.09,1.34 -4.09,4.68z"/>
  </g>
 </g>
</svg>
