<?xml version="1.0" encoding="utf-8"?><svg xmlns="http://www.w3.org/2000/svg" xmlns:xlink="http://www.w3.org/1999/xlink"><symbol viewBox="0 0 169.32 169.32" id="cart" xmlns="http://www.w3.org/2000/svg"><defs><style>.afil0{fill:#fefefe}</style></defs><g id="aСлой_x0020_1"><path class="afil0" d="M0 16.86h16.86l19.07 40.46c.54 1.07.96 1.88 1.44 2.86l6.75 14.42c.82 2 2.22 4.02 2.83 5.81.53 1.52-.79 2.86-2.38 5.51l-9.24 16.22c-2.55 7.11-2.17 14.01 2.94 19.32 2.59 2.7 6.53 5.5 11.65 5.55 33.59.33 68.81-.01 102.54-.01v-16.87H58.2c-3.04 0-3.7.29-5.62-1 0-2.31 1.94-5.42 3.41-8.15l4.2-7.72h59.53c4.12 0 5.71-.01 8.89-1.03 5.23-1.66 7.7-5.43 10.07-10.1 1.13-2.24 2.44-4.28 3.53-6.4l21.36-38.51c1.3-2.17 2.22-4.28 3.5-6.41 1.07-1.77 1.93-2.5 2.25-3.81v-3.03c-.03-.23-.07-.46-.11-.71-1.28-7.17-8.86-6.4-13.44-6.4H35.71L28.11 0H0v16.86zm118.4 135.6c0 8.74 7.62 16.66 15.87 16.86h1.25c2.71-.03 4.57-.26 7.14-1.52l4.65-3.3c5.89-5.92 6.99-15.31 2.04-21.83-.39-.52-.53-.62-.9-1.08-5.53-7-16.78-8.5-23.53-2.45-1.49 1.34-1.54 1.04-3.27 3.34-1.88 2.5-3.25 6.47-3.25 9.98zm-84.67 0c0 4.91 2.34 9.13 4.87 11.67 3.11 3.13 6.99 4.87 10.94 5.19h2.69c3.53-.29 7-1.72 9.89-4.33 7.26-6.54 7.52-17.81.64-24.69-.53-.53-.54-.44-1.11-.88-4.9-3.81-11.6-5.56-17.51-2.67-1.9.93-2.55 1.19-3.89 2.39-.55.5-.86.65-1.28 1.04-3.09 2.81-5.24 7.86-5.24 12.28z" id="a_1540472536928"/></g></symbol><symbol viewBox="0 0 16 16" id="check" xmlns="http://www.w3.org/2000/svg"><path d="M13.795 1L5.79 12.527 2.036 8.503 1 9.773 5.917 15 15 2.112 13.795 1z"/></symbol><symbol viewBox="0 0 97.16 97.16" id="clock" xmlns="http://www.w3.org/2000/svg"><path d="M48.58 0C21.793 0 0 21.793 0 48.58s21.793 48.58 48.58 48.58 48.58-21.793 48.58-48.58S75.367 0 48.58 0zm0 86.823c-21.087 0-38.244-17.155-38.244-38.243S27.493 10.337 48.58 10.337 86.824 27.492 86.824 48.58 69.667 86.823 48.58 86.823z"/><path d="M73.898 47.08H52.066V20.83a4 4 0 00-8 0v30.25a4 4 0 004 4h25.832a4 4 0 000-8z"/></symbol><symbol viewBox="0 0 296.32 296.32" id="control-schet" xmlns="http://www.w3.org/2000/svg"><defs><style>.dfil0{fill:#08345b}</style></defs><g id="dСлой_x0020_1"><g id="d_2973506226480"><path class="dfil0" d="M132.35 247.31c-13.21 3.08-21.91 15.22-23.15 30.09H81.42c-7.19 10.75-6.94 1.62-6.94 23.15h138.9c0-21.53.25-12.4-6.94-23.15h-27.78c-1.24-14.87-9.94-27.01-23.15-30.09l-.17-120.55c.04-24.77 8.94-10.52 9.43-32.25h-41.68c.48 21.3 8.96 8.3 9.45 29.91l-.19 122.89z"/><path class="dfil0" d="M51.33 106.09c2.83 3.26 3.06 3.48 5.37 8.52 7.98 17.42 19.18 55.34 27.04 70.19H23.55c1.08-13.07 23.47-60.22 27.78-78.71zM9.66 184.8H-4.23c14.11 60.57 109.31 49.52 113.43 0H95.31c-.84-10.15-14.72-43.84-19.17-54.91-8.56-21.3-13.11-46.14-24.81-49.27-8.33 6.1-27.4 63.59-32.14 76.67-3.52 9.7-7.06 16.9-9.53 27.51zm226.87-78.71c2.96 12.69 9.66 26.65 14.16 39.09 3.11 8.56 12.9 30.95 13.62 39.62h-60.19l23.12-60.22c1.02-2.62 2.5-6.86 3.92-9.97 2.31-5.04 2.54-5.26 5.37-8.52zm-43.98 78.71h-13.89c4.05 48.7 99.21 61.06 113.43 0H278.2l-18.87-52.9c-3.82-10.28-15.19-45.7-22.8-51.28-11.7 3.13-16.25 27.97-24.81 49.27-4.45 11.07-18.33 44.76-19.17 54.91zM130.04 29.69c0 4.48 3.15 7.53 4.63 13.89-14.5 3.38-5.67-.21-20.75-4.85-24.75-7.61-41.68 13.92-54.35 12.07-24.19-3.53-24.42 14.57-10.56 20.56.12.05-.27 8.61 14.11-4.32 10.31-9.26 28.8-16.51 43.77-16.51 25.71 0 8.88 31.45 37.04 31.45 28.16 0 11.33-31.45 37.04-31.45 14 0 31.89 6.3 42.56 15.32 4.88 4.12 19.41 16.02 23.24-2.49 2.39-11.55-6.09-14.9-17-12.98-5.95 1.05.82 4.01-10.2-1.15-57.29-26.83-42.54-.09-66.38-5.65 1.48-6.36 4.63-9.41 4.63-13.89 0-8.65-9.33-17.07-11.58-25.46h-4.62c-2.25 8.39-11.58 16.81-11.58 25.46z"/></g></g></symbol><symbol viewBox="0 0 7 10" id="dev-hleb-kroshki" xmlns="http://www.w3.org/2000/svg"><path d="M1.268 3.258l1.375 1.937-1.375 1.75m2.92-3.687l1.313 1.844-1.313 1.843"/></symbol><symbol viewBox="0 0 84.66 152.38" id="facebook" xmlns="http://www.w3.org/2000/svg"><path d="M80.42.02L60.66-.01c-22.2 0-36.55 14.72-36.55 37.51v17.29H4.24c-1.71 0-3.11 1.39-3.11 3.11v25.05c0 1.72 1.4 3.11 3.11 3.11h19.87v63.22c0 1.72 1.39 3.11 3.11 3.11h25.92c1.72 0 3.11-1.39 3.11-3.11V86.06h23.23c1.72 0 3.11-1.39 3.11-3.11l.01-25.05a3.11 3.11 0 00-3.11-3.11H56.25V40.13c0-7.05 1.68-10.62 10.86-10.62l13.31-.01c1.71 0 3.11-1.39 3.11-3.11V3.13c0-1.71-1.39-3.11-3.11-3.11z"/></symbol><symbol viewBox="0 0 460.298 460.297" class="ghovered-paths" id="home" xmlns="http://www.w3.org/2000/svg"><path d="M230.149 120.939L65.986 256.274c0 .191-.048.472-.144.855-.094.38-.144.656-.144.852v137.041c0 4.948 1.809 9.236 5.426 12.847 3.616 3.613 7.898 5.431 12.847 5.431h109.63V303.664h73.097v109.64h109.629c4.948 0 9.236-1.814 12.847-5.435 3.617-3.607 5.432-7.898 5.432-12.847V257.981c0-.76-.104-1.334-.288-1.707L230.149 120.939z" data-original="#000000" class="ghovered-path gactive-path" data-old_color="#000000"/><path d="M457.122 225.438L394.6 173.476V56.989c0-2.663-.856-4.853-2.574-6.567-1.704-1.712-3.894-2.568-6.563-2.568h-54.816c-2.666 0-4.855.856-6.57 2.568-1.711 1.714-2.566 3.905-2.566 6.567v55.673l-69.662-58.245c-6.084-4.949-13.318-7.423-21.694-7.423-8.375 0-15.608 2.474-21.698 7.423L3.172 225.438c-1.903 1.52-2.946 3.566-3.14 6.136-.193 2.568.472 4.811 1.997 6.713l17.701 21.128c1.525 1.712 3.521 2.759 5.996 3.142 2.285.192 4.57-.476 6.855-1.998L230.149 95.817l197.57 164.741c1.526 1.328 3.521 1.991 5.996 1.991h.858c2.471-.376 4.463-1.43 5.996-3.138l17.703-21.125c1.522-1.906 2.189-4.145 1.991-6.716-.195-2.563-1.242-4.609-3.141-6.132z" data-original="#000000" class="ghovered-path gactive-path" data-old_color="#000000"/></symbol><symbol viewBox="0 0 143.92 143.92" id="inst" xmlns="http://www.w3.org/2000/svg"><path d="M14.24 4.23h106.99c10.16 0 18.47 8.31 18.47 18.47v106.99c0 10.16-8.31 18.46-18.47 18.46H14.24c-10.16 0-18.48-8.3-18.48-18.46V22.7c0-10.16 8.32-18.47 18.48-18.47zm86.38 15.98c-3.57 0-6.48 2.92-6.48 6.49v15.5c0 3.57 2.91 6.49 6.48 6.49h16.27c3.56 0 6.48-2.92 6.48-6.49V26.7c0-3.57-2.92-6.49-6.48-6.49h-16.27zm22.81 44.88h-12.67c1.2 3.92 1.85 8.06 1.85 12.36 0 23.93-20.03 43.35-44.74 43.35s-44.75-19.42-44.75-43.35c0-4.3.66-8.44 1.85-12.36H11.76v60.81c0 3.15 2.57 5.71 5.72 5.71h100.23c3.15 0 5.72-2.56 5.72-5.71V65.09zM67.87 47.87c-15.96 0-28.91 12.54-28.91 28.02 0 15.46 12.95 28 28.91 28s28.91-12.54 28.91-28c0-15.48-12.95-28.02-28.91-28.02z"/></symbol><symbol viewBox="0 0 160.86 148.16" id="like" xmlns="http://www.w3.org/2000/svg"><path d="M9.34 54.37c.37-11.65 4.25-19.75 10.1-26.52 4.39-5.09 14.63-10.91 24-10.61 9.5.31 14.1 2.21 20.55 7.76 6.89 5.91 6.01 12.75 13.12 12.98 5.69.18 6.52-6.88 13.01-11.98 6.54-5.14 11.93-6.87 21.21-6.57 9.37.31 19.22 6.77 23.27 12.13 10.76 14.23 11.09 32.54 1.87 47.88l-3.75 5.25c-5.07 5.61-6.47 5.95-11.75 10.36-.48.4-.63.61-1.13 1.01L78.93 128.9c-.96.75-1.36 1.15-2.37 1.9-1 .75-1.46 1.46-2.52 2.12-1.66-.44-1.48-.71-2.53-1.78L29.3 92.44c-.97-1.02-1.49-1.29-2.43-2.22-.89-.89-1.4-1.23-2.25-2.04-2.85-2.71-3.84-3.46-6.57-7.01-4.69-6.09-9.06-16.1-8.71-26.8zm-13.56-1.15c-.51 15.99 5.98 30.68 16.62 41.9l19.81 18.13c1.83 1.9 3.67 3.33 5.55 5.19l12.68 11.66c.7.65.87.65 1.56 1.31.53.5.7.77 1.25 1.25l7.09 6.51c.66.66.74.63 1.36 1.16l2.81 2.56c6.63 6.3 8.76 8.56 16.95 1.25 5.88-5.23 17.35-13.53 23.5-18.89.95-.82 1.48-1.14 2.38-1.89l13.97-11.33c8.92-7.77 19.7-13.97 26.22-24.86 3.77-6.32 5.82-10.92 7.54-18.18.95-4.02.67-4.74 1.15-7.64 1.59-9.59-1.68-21.54-6.15-30.43-1.84-3.66-2.91-4.72-5.09-7.69-7.38-10.09-21.7-16.99-34.64-17.4-7.75-.25-14.17 2.18-19.23 4.98-1.37.75-2.45 1.41-3.75 2.28l-6.85 5.62c-.82.76-2.66 2.8-3.24 3.2-1.6-1.26-4.59-6.49-12.87-11.83C44.02-3.09 18.65 5.33 5.15 24.43c-5.5 7.78-9.06 19.38-9.37 28.79z"/></symbol><symbol viewBox="0 0 160.86 148.16" id="like2" xmlns="http://www.w3.org/2000/svg"><path d="M-4.22 53.22c-.51 15.99 5.98 30.68 16.62 41.9l19.81 18.13c1.83 1.9 3.67 3.33 5.55 5.19l12.68 11.66c.7.65.87.65 1.56 1.31.53.5.7.77 1.25 1.25l7.09 6.51c.66.66.74.63 1.36 1.16l2.81 2.56c6.63 6.3 8.76 8.56 16.95 1.25 5.88-5.23 17.35-13.53 23.5-18.89.95-.82 1.48-1.14 2.38-1.89l13.97-11.33c8.92-7.77 19.7-13.97 26.22-24.86 3.77-6.32 5.82-10.92 7.54-18.18.95-4.02.67-4.74 1.15-7.64 1.59-9.59-1.68-21.54-6.15-30.43-1.84-3.66-2.91-4.72-5.09-7.69-7.38-10.09-21.7-16.99-34.64-17.4-7.75-.25-14.17 2.18-19.23 4.98-1.37.75-2.45 1.41-3.75 2.28l-6.85 5.62c-.82.76-2.66 2.8-3.24 3.2-1.6-1.26-4.59-6.49-12.87-11.83C44.02-3.09 18.65 5.33 5.15 24.43c-5.5 7.78-9.06 19.38-9.37 28.79z"/></symbol><symbol viewBox="0 0 304.78 160.86" id="look" xmlns="http://www.w3.org/2000/svg"><path d="M219.66 129.32zm-88.11-44.65c0-2.39 1.12-6.42 1.85-8.27 2.93-7.37 11.53-12.57 18.99-12.57 11.13 0 20.84 9.71 20.84 20.84 0 18.52-23.43 27.61-35.45 14.61-3.17-3.43-6.23-8.43-6.23-14.61zm-17.86-2.38c0 10.14 1.12 16.38 6.9 24.66 6.44 9.21 17.84 16.41 29.42 16.41 12.3 0 18.19-1.78 27.31-9 3.09-2.45 4.33-3.89 6.63-7.06 10.47-14.47 9.48-33.24-1.87-47.56-2.45-3.09-3.89-4.32-7.06-6.63-26.38-19.09-61.33 2.01-61.33 29.18zm-28.57 47.03zm4.76-44.65c0-4.23.99-10.22 1.73-13.75.85-4.11 2.19-8.14 3.83-11.65 22.54-48.37 89.65-50.06 113.71-.41 5.97 12.32 6.8 26.24 4.02 39.56-9.48 45.64-68.89 66.3-104.86 30.33-11.3-11.3-18.43-27.74-18.43-44.08zm129.78-44.65c7.88 1.84 34.16 20.28 41.16 25.51 3.76 2.81 19.93 16.14 21.94 19.14-1.94 2.9-4.25 3.91-6.7 6.39-9.55 9.68-46.77 36.01-56.4 38.26.95-3.55 13.11-17.3 13.1-44.65-.01-27.48-12.1-40.92-13.1-44.65zm-134.54 89.3c-2.88-.67-14.88-7.55-17.51-9.28-11.07-7.33-29.43-19.3-38.6-28.68-2.38-2.44-5.14-3.92-6.99-6.69 1.94-2.9 4.25-3.91 6.7-6.39 2.38-2.42 4.6-4.22 7.33-6.36 17.51-13.77 19.01-15 39.89-27.39 2.43-1.44 6.46-3.87 9.18-4.51l-4.96 9.33c-12.22 24.42-10.51 51.33 2.18 75.01 1.04 1.95 2.21 2.83 2.78 4.96zm134.54-89.3zm-134.54 0zM-.01 83.48c0 6.05.87 5.94 5.51 10.57l22.55 20.31c2.79 2.21 5.03 4.05 8 6.28 30.59 23.06 74.03 44.4 112.77 44.4 34.44 0 56.21-7.88 84.53-22.03l18.1-10.48c10.21-6.83 15.18-10 24.95-17.91l7.81-6.48c4.87-3.79 20.58-17.52 20.58-22.28 0-6.05-.87-5.94-5.51-10.57L288.3 64.85c-1.55-1.3-2.14-2.16-3.75-3.4-8.97-6.87-13.06-10.65-24.15-18.71-25.93-18.83-68.89-38.43-104.44-38.43-27.59 0-51.76 5.79-75.02 17.25C70.43 26.74 63.1 30.4 53.32 36.8c-9.82 6.43-15.76 10.52-24.94 17.92L16.8 64.57C12.85 68.07-.01 78.81-.01 83.48z"/></symbol><symbol viewBox="0 0 338.66 270.92" id="mail" xmlns="http://www.w3.org/2000/svg"><defs><style>.lfil0{fill:#2075a1}</style></defs><g id="lСлой_x0020_1"><g id="l_1540715258896"><path class="lfil0" d="M308.42 268.51c7.62 0 14.21-2.51 19.82-7.48l-95.95-95.95c-2.3 1.65-4.53 3.25-6.64 4.77-7.18 5.29-13.01 9.42-17.48 12.38-4.48 2.97-10.43 5.99-17.86 9.07-7.44 3.09-14.37 4.63-20.79 4.63h-.38c-6.43 0-13.36-1.54-20.79-4.63-7.44-3.08-13.39-6.1-17.86-9.07-4.47-2.96-10.3-7.08-17.48-12.38-2.01-1.46-4.23-3.07-6.63-4.8l-95.97 95.98c5.61 4.97 12.21 7.48 19.82 7.48h278.19zM19.08 104.66C11.91 99.87 5.54 94.39 0 88.21V234.2l84.57-84.57c-16.92-11.81-38.72-26.79-65.49-44.97zm300.69 0c-25.75 17.42-47.62 32.42-65.64 45l84.53 84.54V88.21c-5.42 6.05-11.71 11.53-18.89 16.45z"/><path class="lfil0" d="M308.42 2.41H30.24c-9.71 0-17.17 3.28-22.4 9.83C2.61 18.79 0 26.98 0 36.8c0 7.94 3.46 16.54 10.39 25.8 6.93 9.26 14.3 16.54 22.11 21.83 4.29 3.03 17.2 12 38.75 26.93 11.63 8.06 21.74 15.09 30.44 21.15 7.41 5.16 13.8 9.63 19.07 13.34.61.43 1.56 1.11 2.82 2.01 1.37.98 3.09 2.22 5.22 3.76 4.09 2.96 7.49 5.35 10.2 7.18 2.71 1.83 5.98 3.87 9.83 6.14 3.84 2.27 7.47 3.97 10.87 5.11 3.4 1.13 6.55 1.7 9.45 1.7h.37c2.9 0 6.05-.57 9.45-1.7 3.4-1.14 7.02-2.84 10.87-5.11 3.84-2.27 7.11-4.31 9.83-6.14 2.71-1.83 6.11-4.22 10.2-7.18 2.13-1.54 3.85-2.78 5.21-3.75 1.27-.91 2.22-1.59 2.83-2.02 4.11-2.86 10.51-7.31 19.12-13.29 15.67-10.88 38.75-26.91 69.33-48.13 9.19-6.42 16.88-14.18 23.05-23.24 6.16-9.07 9.25-18.59 9.25-28.54 0-8.32-2.99-15.43-8.97-21.36-5.99-5.92-13.08-8.88-21.27-8.88z"/></g></g></symbol><symbol viewBox="0 0 338.66 270.92" id="mail-white" xmlns="http://www.w3.org/2000/svg"><defs><style>.mfil0{fill:#fefefe}</style></defs><g id="mСлой_x0020_1"><g id="m_1540745536592"><path class="mfil0" d="M308.42 268.51c7.62 0 14.21-2.51 19.82-7.48l-95.95-95.95c-2.3 1.65-4.53 3.25-6.64 4.77-7.18 5.29-13.01 9.42-17.48 12.38-4.48 2.97-10.43 5.99-17.86 9.07-7.44 3.09-14.37 4.63-20.79 4.63h-.38c-6.43 0-13.36-1.54-20.79-4.63-7.44-3.08-13.39-6.1-17.86-9.07-4.47-2.96-10.3-7.08-17.48-12.38-2.01-1.46-4.23-3.07-6.63-4.8l-95.97 95.98c5.61 4.97 12.21 7.48 19.82 7.48h278.19zM19.08 104.66C11.91 99.87 5.54 94.39 0 88.21V234.2l84.57-84.57c-16.92-11.81-38.72-26.79-65.49-44.97zm300.69 0c-25.75 17.42-47.62 32.42-65.64 45l84.53 84.54V88.21c-5.42 6.05-11.71 11.53-18.89 16.45z"/><path class="mfil0" d="M308.42 2.41H30.24c-9.71 0-17.17 3.28-22.4 9.83C2.61 18.79 0 26.98 0 36.8c0 7.94 3.46 16.54 10.39 25.8 6.93 9.26 14.3 16.54 22.11 21.83 4.29 3.03 17.2 12 38.75 26.93 11.63 8.06 21.74 15.09 30.44 21.15 7.41 5.16 13.8 9.63 19.07 13.34.61.43 1.56 1.11 2.82 2.01 1.37.98 3.09 2.22 5.22 3.76 4.09 2.96 7.49 5.35 10.2 7.18 2.71 1.83 5.98 3.87 9.83 6.14 3.84 2.27 7.47 3.97 10.87 5.11 3.4 1.13 6.55 1.7 9.45 1.7h.37c2.9 0 6.05-.57 9.45-1.7 3.4-1.14 7.02-2.84 10.87-5.11 3.84-2.27 7.11-4.31 9.83-6.14 2.71-1.83 6.11-4.22 10.2-7.18 2.13-1.54 3.85-2.78 5.21-3.75 1.27-.91 2.22-1.59 2.83-2.02 4.11-2.86 10.51-7.31 19.12-13.29 15.67-10.88 38.75-26.91 69.33-48.13 9.19-6.42 16.88-14.18 23.05-23.24 6.16-9.07 9.25-18.59 9.25-28.54 0-8.32-2.99-15.43-8.97-21.36-5.99-5.92-13.08-8.88-21.27-8.88z"/></g></g></symbol><symbol viewBox="0 0 512 512" id="minus" xmlns="http://www.w3.org/2000/svg"><path d="M477.675 127.498c-22.893-39.22-53.945-70.272-93.166-93.164C345.28 11.443 302.458 0 256.008 0c-46.445 0-89.281 11.443-128.502 34.333-39.223 22.889-70.276 53.941-93.169 93.165C11.443 166.723 0 209.559 0 256c0 46.445 11.446 89.273 34.334 128.5 22.892 39.22 53.944 70.272 93.167 93.167C166.727 500.556 209.559 512 256.003 512s89.281-11.444 128.504-34.333c39.222-22.887 70.273-53.947 93.164-93.167 22.887-39.225 34.328-82.059 34.328-128.5.001-46.446-11.442-89.283-34.324-128.502zm-72.333 149.836c0 5.776-2.114 10.783-6.337 14.999-4.22 4.22-9.222 6.337-15 6.337H128.001c-5.776 0-10.775-2.116-14.999-6.337-4.222-4.215-6.333-9.222-6.333-14.999v-42.67c0-5.777 2.112-10.777 6.333-15 4.223-4.223 9.221-6.335 14.999-6.335h256.004c5.777 0 10.779 2.112 15 6.335 4.223 4.221 6.337 9.221 6.337 15v42.67z"/><path d="M405.342 277.334c0 5.776-2.114 10.783-6.337 14.999-4.22 4.22-9.222 6.337-15 6.337H128.001c-5.776 0-10.775-2.116-14.999-6.337-4.222-4.215-6.333-9.222-6.333-14.999v-42.67c0-5.777 2.112-10.777 6.333-15 4.223-4.223 9.221-6.335 14.999-6.335h256.004c5.777 0 10.779 2.112 15 6.335 4.223 4.221 6.337 9.221 6.337 15v42.67z"/></symbol><symbol viewBox="277.64 400.945 40 40" id="next" xmlns="http://www.w3.org/2000/svg"><path d="M308.985 419.848l-18.5-18.45a1.552 1.552 0 00-2.19 2.196l17.4 17.352-17.401 17.352a1.548 1.548 0 001.095 2.647c.396 0 .792-.15 1.095-.452l18.501-18.45a1.548 1.548 0 000-2.195z"/></symbol><symbol viewBox="0 0 338.66 338.66" id="phone" xmlns="http://www.w3.org/2000/svg"><path d="M311.49 222.29c-20.74 0-41.09-3.24-60.39-9.62-9.45-3.22-21.07-.26-26.84 5.66l-38.08 28.75c-44.16-23.57-71.37-50.77-94.62-94.6l27.9-37.09c7.25-7.24 9.85-17.81 6.74-27.73-6.41-19.4-9.66-39.74-9.66-60.49 0-14.98-12.19-27.18-27.17-27.18h-62.2C12.19-.01 0 12.19 0 27.17c0 171.76 139.73 311.5 311.49 311.5 14.98 0 27.17-12.2 27.17-27.18v-62.02c0-14.99-12.19-27.18-27.17-27.18z"/></symbol><symbol viewBox="0 0 338.66 338.66" id="phone-white" xmlns="http://www.w3.org/2000/svg"><path d="M311.49 222.29c-20.74 0-41.09-3.24-60.39-9.62-9.45-3.22-21.07-.26-26.84 5.66l-38.08 28.75c-44.16-23.57-71.37-50.77-94.62-94.6l27.9-37.09c7.25-7.24 9.85-17.81 6.74-27.73-6.41-19.4-9.66-39.74-9.66-60.49 0-14.98-12.19-27.18-27.17-27.18h-62.2C12.19-.01 0 12.19 0 27.17c0 171.76 139.73 311.5 311.49 311.5 14.98 0 27.17-12.2 27.17-27.18v-62.02c0-14.99-12.19-27.18-27.17-27.18z"/></symbol><symbol viewBox="0 0 512 512" id="plus" xmlns="http://www.w3.org/2000/svg"><path d="M477.675 127.498c-22.893-39.22-53.945-70.272-93.166-93.164C345.28 11.443 302.458 0 256.008 0c-46.445 0-89.281 11.443-128.502 34.333-39.223 22.889-70.276 53.941-93.169 93.165C11.443 166.723 0 209.559 0 256c0 46.445 11.446 89.273 34.334 128.5 22.892 39.22 53.944 70.272 93.167 93.167C166.727 500.556 209.559 512 256.003 512s89.281-11.444 128.504-34.333c39.222-22.887 70.273-53.947 93.164-93.167 22.887-39.225 34.328-82.059 34.328-128.5.001-46.446-11.442-89.283-34.324-128.502zm-72.333 149.836c0 5.776-2.114 10.783-6.337 14.999-4.227 4.22-9.226 6.337-15 6.337h-85.336v85.328c0 5.776-2.116 10.778-6.337 15.007-4.219 4.219-9.22 6.33-14.999 6.33h-42.665c-5.777 0-10.777-2.111-14.999-6.33-4.224-4.228-6.336-9.229-6.336-15.007V298.67H128c-5.777 0-10.775-2.116-14.999-6.337-4.222-4.215-6.333-9.222-6.333-14.999v-42.67c0-5.777 2.112-10.777 6.333-15 4.223-4.223 9.221-6.335 14.999-6.335h85.337v-85.333c0-5.778 2.112-10.775 6.335-14.999 4.222-4.222 9.222-6.333 14.999-6.333h42.67c5.777 0 10.78 2.112 14.999 6.333 4.22 4.223 6.338 9.221 6.338 14.999v85.333h85.327c5.777 0 10.779 2.112 15 6.335 4.223 4.221 6.337 9.221 6.337 15v42.67z"/><path d="M405.342 277.334c0 5.776-2.114 10.783-6.337 14.999-4.227 4.22-9.226 6.337-15 6.337h-85.336v85.328c0 5.776-2.116 10.778-6.337 15.007-4.219 4.219-9.22 6.33-14.999 6.33h-42.665c-5.777 0-10.777-2.111-14.999-6.33-4.224-4.228-6.336-9.229-6.336-15.007V298.67H128c-5.777 0-10.775-2.116-14.999-6.337-4.222-4.215-6.333-9.222-6.333-14.999v-42.67c0-5.777 2.112-10.777 6.333-15 4.223-4.223 9.221-6.335 14.999-6.335h85.337v-85.333c0-5.778 2.112-10.775 6.335-14.999 4.222-4.222 9.222-6.333 14.999-6.333h42.67c5.777 0 10.78 2.112 14.999 6.333 4.22 4.223 6.338 9.221 6.338 14.999v85.333h85.327c5.777 0 10.779 2.112 15 6.335 4.223 4.221 6.337 9.221 6.337 15v42.67z"/></symbol><symbol viewBox="0 0 211.66 296.32" id="pochet-gr" xmlns="http://www.w3.org/2000/svg"><defs><style>.sfil0{fill:#08345b}</style></defs><g id="sСлой_x0020_1"><path class="sfil0" d="M22.79 120.87v-13.52c0-65.31 86.91-98.76 132.35-53.54 24.9 24.79 25.27 37.01 25.27 67.06 0 17.27-14.38 41.48-24.17 50.13-32.17 28.46-75.27 28.35-108.07 1.05-10.41-8.67-25.38-33.28-25.38-51.18zM47.56 19.53c-6.7 12.66-3.43 15.04-17.71 20.58-18.86 7.31-7.31 10.03-15.08 23.2-5.3 8.97-16.02 5.82-12.75 22.02 4.69 23.17-6.26 11.29-6.26 28.78 0 5.95 7.67 9.99 7.96 18.02.24 7-5.65 12.3-.4 19.28 5.14 6.83 8.98 2.36 12.78 14.42 3.21 10.16-.28 14.26 10.5 18.78 12.21 5.11 8.44-1.71 15.76 11.26 5.76 10.22 5.04 9.55 18.69 10.58 17.13 1.31 7.2 3.5 18.1 9.13 8.76 4.52 12.17-2.39 22.45-2.39 9.01 0 12.76 6.13 20.98 3.09 10.72-3.97 2.89-8.18 17.4-9.75 36.2-3.93 4.68-10.5 34.92-21.37 11.32-4.06 8.23-4.68 10.99-16.03 3.51-14.41 6.65-9.48 12.79-16.69 6.19-7.27 1.48-9.22.9-18.67-.63-10.24 7.86-12.87 7.86-19.66 0-11.15-5-9.75-7.4-17.25-2.52-7.87 3.82-11.93 1.38-19.65-5.2-16.46-9.08 6.38-18.75-35.16-21.3-4.96-17.99-5.43-27.03-22.52-39.57 0-22.09-11.25-36.03-11.25-9.73 0-9.07 4.5-15.76 4.5-8.95 0-11.32-4.5-20.26-4.5-6.8 0-7.34 5.8-13.48 9.04-6.55 3.45-12.9 2.21-22.55 2.21z"/><path class="sfil0" d="M38.55 296.5c14.15 0 48.9-27.02 63.05-27.02 18.39 0 44.34 25.29 58.92 27.02h2.9c5.1-.71 8.21-5.65 8.15-17.84l-.16-83.49c-12.24 4.43-1.78 7.28-12.83 14.3-9.18 5.83-13.23.66-19.84 2.82-5.57 1.81-7.95 8.35-16.14 10.78-9.5 2.83-14.36-4.27-21-4.27-5.73 0-11.42 6.2-19.38 4.71-8.53-1.59-11-8.04-16.37-10.63-8.92-4.3-16.03 6.87-26.52-9.48-5.61-8.76.47-5.33-7.54-8.23v54.05c0 11.65-4.19 47.28 6.76 47.28zm63.04-255.9c39.68 0 71.84 32.16 71.84 71.84 0 39.68-32.16 71.84-71.84 71.84-39.68 0-71.84-32.16-71.84-71.84 0-39.68 32.16-71.84 71.84-71.84zm-.18 15.88l17.64 31.28 35.2 7.11-24.29 26.44 4.12 35.68-32.68-14.93-32.66 14.93 4.12-35.68-24.29-26.44 35.2-7.11 17.64-31.28z"/></g></symbol><symbol viewBox="0 0 279.38 279.38" id="protivod" xmlns="http://www.w3.org/2000/svg"><defs><style>.tfil0{fill:#08345b}</style></defs><g id="tСлой_x0020_1"><g id="t_2938701875056"><path class="tfil0" d="M52.43 239.69c0-7.91 3.76-9.32 8.91-14.46L216.48 70.09c1.99-1.99 3.58-3.55 5.54-5.56 3.27-3.33 4.19-3.64 9.21-3.64 8.77 0 22.49 30.2 24.97 36.39 3.49 8.74 8.27 27.34 8.36 37.79.03 3.21.1 4.82.42 7.22.45 3.26-.43 4.01-.46 7.39-.21 20.07-5.03 32.51-12 49.36-9.3 22.43-30.38 43.7-51.19 56.32-5.98 3.63-14.48 7.53-21.02 9.96-11.46 4.26-25.97 7.72-39.08 7.67-2.96-.02-4.6.46-6.65.26-8.15-.8-9.21.38-21.05-1.75-19.78-3.56-38.25-11.32-54.18-22.95-2.48-1.82-6.92-4.92-6.92-8.86zm-11.1-12.85c-5.36 0-6.87-1.87-10.36-6.59-6.89-9.32-11.9-18.74-16.36-29.81-7.21-17.91-10.88-44.69-7.18-66.45 7.33-43.07 32.77-78.24 72.26-97.2 6.66-3.19 14.95-6.25 22.75-8.22 4.33-1.09 8.29-1.87 12.59-2.6l21.55-1.86c14.79.5 31.75 3.5 44.99 8.79 7.47 2.98 14.08 6.18 20.78 10.19 4.36 2.61 16.03 9.41 16.03 14.94 0 7.91-3.77 9.32-8.91 14.46L54.33 217.63c-4.73 4.73-7.71 9.21-13 9.21zm-45.58-87.65c0 25.75 3.21 42.87 13.05 64.08 5.86 12.64 11.9 20.61 19.92 30.92 1.41 1.81 2.51 2.58 3.84 4.33 1.37 1.79 2.58 2.87 4.24 4.53 1.69 1.7 2.31 2.37 4.28 3.9 5.02 3.88 7.17 6.74 14.27 11.44 10.38 6.88 21.26 13.15 33.52 17.32 39.73 13.51 79.69 9.63 116.25-10.71 9.5-5.29 16.34-10.89 24.22-17.85 7.41-6.55 14.6-14.26 20.13-22.53 4.17-6.24 9.6-14.42 12.48-21.4 1.75-4.24 3.45-7.64 5-11.95 10.99-30.58 10.82-63.77.15-94.38-3.86-11.1-10.5-23.86-17.42-33.42-1.28-1.78-2.18-2.9-3.51-4.67l-7.78-9.16c-1.83-1.79-2.41-3.05-4.07-4.7l-13.19-11.35C197.85 16.26 169.71 4.2 140.08 4.2c-26.43 0-41.8 3.12-63.69 12.87C63.4 22.86 55.6 29.08 45.42 36.93l-8.91 8.03c-1.59 1.59-2.65 2.54-3.95 4.24-3.05 4-6.96 7.53-11.22 13.9C6.99 84.56-4.25 110.11-4.25 139.19z"/><path class="tfil0" d="M144.61 155.4c3.95 1.03 7.95 3.26 10.23 5.84 6.52 7.38 6.6 17.1 1.6 17.1-2.71 0-4.89.45-5.78-4.16-.62-3.18-.57-3.61-2.52-5.66-2.21-2.33-6.65-4.79-10.98-4.79-1.75 0-14.35 13.34-15.2 14.61 1.9 1.26 1.95 2.07 4.26 3.33 6.56 3.57 12.04 1.61 19 3.79 6.04 1.9 14.72 8.36 14.72 16.25 0 8.03-2.05 13.36-9.58 17.88-4.82 2.9-6.03 2.11-8.59 3.1-3.18 1.23-.7.64-2.3 3.54-1.62 2.93-6.09 2.96-7.92.36-1.51-2.14.15-2.63-2.13-3.71-1.49-.7-4.19-.41-8.98-3.29-9.57-5.75-11.35-16.69-8.27-19.5 2.28-2.07 6.94-1.89 7.98 2.85.67 3.09.74 4.24 2.55 6.22 8.15 8.9 27.9 3.89 27.9-5.11 0-12.35-18.21-8.79-27.29-13.04-1.8-.84-2.84-1.57-4.39-2.61-1.74-1.17-2.51-2.07-3.97-3.05-2.42 1.62-29.63 29.34-34.62 34.33-1.68 1.68-3.88 2.96-4.53 5.4 2.06.55 4.15 2.4 5.84 3.52 1.75 1.16 3.93 2.51 5.84 3.5 24.43 12.7 49.77 14.22 76.61 8.81 4.34-.87 7.94-1.87 11.81-3.38 10.57-4.14 19.29-9.35 26.29-18.7 5.58-7.45 8.01-15.37 8.01-25.89 0-16.24-7.39-37.48-14.72-49.56-1.73-2.86-3.18-5.07-5.03-7.82-2.31-3.46-8.66-11.8-11.81-13.9l-34.03 33.74zm-84 42.22l88.96-88.67-33.46-.16c-5.12-.03-5.62.15-9.16 1.94-9.54 4.83-17.55 12.42-23.89 20.52-7.34 9.38-11.27 17.76-15.69 28.72-5.09 12.6-6.76 23.47-6.76 37.65zm56.68-143.75c0 11.51-24.05-.82-14.8 10.13l9.54 11.5c.81 1.07 2.37 3.5 4.09 3.5h38.57c2.15 0 12.21-13.32 13.63-15 9.24-10.95-14.8 1.38-14.8-10.13 0-3.52 4.37-9.93 0-9.93h-36.23c-4.37 0 0 6.41 0 9.93zM105.6 93.61c0 3.69 1.23 5.84 7.6 5.84h43.82c3.01 0 6.89-4.49 8.18-6.43-.57-2.44-1.69-4.09-4.67-4.09h-50.84c-.95 0-4.09 1.34-4.09 4.68z"/></g></g></symbol><symbol viewBox="0 0 169.32 169.32" id="search" xmlns="http://www.w3.org/2000/svg"><path d="M74.55 0C33.44 0-.01 33.45-.01 74.56c0 41.12 33.45 74.57 74.56 74.57 18.08 0 34.69-6.47 47.61-17.22l35.4 35.4a6.892 6.892 0 004.87 2.01c1.76 0 3.52-.67 4.87-2.01 2.69-2.69 2.69-7.05 0-9.73l-35.4-35.4c10.75-12.92 17.22-29.53 17.22-47.62C149.12 33.45 115.67 0 74.55 0zm0 135.37c-33.52 0-60.8-27.28-60.8-60.81 0-33.52 27.28-60.8 60.8-60.8 33.53 0 60.81 27.28 60.81 60.8 0 33.53-27.28 60.81-60.81 60.81z"/></symbol><symbol viewBox="0 0 380.98 253.98" id="str" xmlns="http://www.w3.org/2000/svg"><path d="M374.42 121.39L255.36 2.33a7.913 7.913 0 00-11.22 0 7.93 7.93 0 000 11.22l105.51 105.51H3.69c-4.39 0-7.94 3.55-7.94 7.94 0 4.39 3.55 7.94 7.94 7.94h345.96L244.14 240.45a7.93 7.93 0 000 11.22 7.914 7.914 0 005.61 2.33c2.03 0 4.06-.78 5.61-2.33l119.06-119.06a7.913 7.913 0 000-11.22z"/></symbol><symbol viewBox="0 0 194.72 118.52" id="vk" xmlns="http://www.w3.org/2000/svg"><path d="M188.76 102.81c-.52-.88-3.76-7.91-19.34-22.37-16.31-15.15-14.12-12.69 5.52-38.87 11.97-15.94 16.75-25.68 15.26-29.84-1.43-3.97-10.23-2.92-10.23-2.92l-29.26.17s-2.17-.3-3.78.67c-1.57.95-2.58 3.14-2.58 3.14s-4.64 12.34-10.83 22.83c-13.03 22.14-18.25 23.31-20.38 21.93-4.96-3.2-3.71-12.87-3.71-19.74 0-21.46 3.25-30.4-6.35-32.72-3.18-.76-5.52-1.27-13.66-1.36-10.45-.11-19.3.04-24.3 2.48-3.33 1.63-5.9 5.27-4.33 5.48 1.93.26 6.32 1.18 8.64 4.35 3.01 4.07 2.9 13.25 2.9 13.25s1.72 25.26-4.03 28.4c-3.96 2.15-9.37-2.24-21-22.34-5.95-10.28-10.45-21.66-10.45-21.66s-.87-2.12-2.41-3.25c-1.88-1.38-4.51-1.82-4.51-1.82l-27.82.17s-4.18.13-5.71 1.94c-1.36 1.62-.11 4.95-.11 4.95s21.79 50.97 46.45 76.66c22.62 23.55 48.31 22.01 48.31 22.01h11.63s3.52-.39 5.31-2.33c1.65-1.78 1.59-5.11 1.59-5.11s-.23-15.62 7.03-17.92c7.14-2.26 16.32 15.1 26.04 21.78 7.36 5.05 12.94 3.94 12.94 3.94l26.01-.36s13.61-.84 7.16-11.54z"/></symbol><symbol viewBox="0 0 512 512" id="x-button" xmlns="http://www.w3.org/2000/svg"><circle cx="256" cy="256" r="256"/><path d="M510.28 285.304L367.912 142.936 150.248 368.608l140.928 140.928c115.176-15.84 205.88-108.248 219.104-224.232z"/><path d="M354.376 371.536a19.954 19.954 0 01-14.144-5.856L146.408 171.848c-7.816-7.816-7.816-20.472 0-28.28s20.472-7.816 28.28 0L368.52 337.4c7.816 7.816 7.816 20.472 0 28.28a19.954 19.954 0 01-14.144 5.856z"/><path d="M160.544 371.536a19.954 19.954 0 01-14.144-5.856c-7.816-7.816-7.816-20.472 0-28.28l193.832-193.832c7.816-7.816 20.472-7.816 28.28 0s7.816 20.472 0 28.28L174.688 365.68a19.94 19.94 0 01-14.144 5.856z"/></symbol></svg>