<?xml version="1.0" encoding="UTF-8"?>
<!DOCTYPE svg PUBLIC "-//W3C//DTD SVG 1.1//EN" "http://www.w3.org/Graphics/SVG/1.1/DTD/svg11.dtd">
<!-- Creator: CorelDRAW 2019 (64-Bit) -->
<svg xmlns="http://www.w3.org/2000/svg" xml:space="preserve" width="2.9632mm" height="2.9632mm" version="1.1" style="shape-rendering:geometricPrecision; text-rendering:geometricPrecision; image-rendering:optimizeQuality; fill-rule:evenodd; clip-rule:evenodd"
viewBox="0 0 296.32 296.32"
 xmlns:xlink="http://www.w3.org/1999/xlink">
 <defs>
  <style type="text/css">
   <![CDATA[
    .fil0 {fill:#08345B}
   ]]>
  </style>
 </defs>
 <g id="Слой_x0020_1">
  <metadata id="CorelCorpID_0Corel-Layer"/>
  <g id="_2973506226480">
   <path class="fil0" d="M132.35 247.31c-13.21,3.08 -21.91,15.22 -23.15,30.09l-27.78 0c-7.19,10.75 -6.94,1.62 -6.94,23.15l138.9 0c0,-21.53 0.25,-12.4 -6.94,-23.15l-27.78 0c-1.24,-14.87 -9.94,-27.01 -23.15,-30.09l-0.17 -120.55c0.04,-24.77 8.94,-10.52 9.43,-32.25l-41.68 0c0.48,21.3 8.96,8.3 9.45,29.91l-0.19 122.89z"/>
   <path class="fil0" d="M51.33 106.09c2.83,3.26 3.06,3.48 5.37,8.52 7.98,17.42 19.18,55.34 27.04,70.19l-60.19 0c1.08,-13.07 23.47,-60.22 27.78,-78.71zm-41.67 78.71l-13.89 0c14.11,60.57 109.31,49.52 113.43,0l-13.89 0c-0.84,-10.15 -14.72,-43.84 -19.17,-54.91 -8.56,-21.3 -13.11,-46.14 -24.81,-49.27 -8.33,6.1 -27.4,63.59 -32.14,76.67 -3.52,9.7 -7.06,16.9 -9.53,27.51z"/>
   <path class="fil0" d="M236.53 106.09c2.96,12.69 9.66,26.65 14.16,39.09 3.11,8.56 12.9,30.95 13.62,39.62l-60.19 0 23.12 -60.22c1.02,-2.62 2.5,-6.86 3.92,-9.97 2.31,-5.04 2.54,-5.26 5.37,-8.52zm-43.98 78.71l-13.89 0c4.05,48.7 99.21,61.06 113.43,0l-13.89 0 -18.87 -52.9c-3.82,-10.28 -15.19,-45.7 -22.8,-51.28 -11.7,3.13 -16.25,27.97 -24.81,49.27 -4.45,11.07 -18.33,44.76 -19.17,54.91z"/>
   <path class="fil0" d="M130.04 29.69c0,4.48 3.15,7.53 4.63,13.89 -14.5,3.38 -5.67,-0.21 -20.75,-4.85 -24.75,-7.61 -41.68,13.92 -54.35,12.07 -24.19,-3.53 -24.42,14.57 -10.56,20.56 0.12,0.05 -0.27,8.61 14.11,-4.32 10.31,-9.26 28.8,-16.51 43.77,-16.51 25.71,0 8.88,31.45 37.04,31.45 28.16,0 11.33,-31.45 37.04,-31.45 14,0 31.89,6.3 42.56,15.32 4.88,4.12 19.41,16.02 23.24,-2.49 2.39,-11.55 -6.09,-14.9 -17,-12.98 -5.95,1.05 0.82,4.01 -10.2,-1.15 -57.29,-26.83 -42.54,-0.09 -66.38,-5.65 1.48,-6.36 4.63,-9.41 4.63,-13.89 0,-8.65 -9.33,-17.07 -11.58,-25.46l-4.62 0c-2.25,8.39 -11.58,16.81 -11.58,25.46z"/>
  </g>
 </g>
</svg>
