<?xml version="1.0" encoding="UTF-8"?>
<!DOCTYPE svg PUBLIC "-//W3C//DTD SVG 1.1//EN" "http://www.w3.org/Graphics/SVG/1.1/DTD/svg11.dtd">
<!-- Creator: CorelDRAW 2019 (64-Bit) -->
<svg xmlns="http://www.w3.org/2000/svg" xml:space="preserve" width="0.8466mm" height="1.5238mm" version="1.1" style="shape-rendering:geometricPrecision; text-rendering:geometricPrecision; image-rendering:optimizeQuality; fill-rule:evenodd; clip-rule:evenodd"
viewBox="0 0 84.66 152.38"
 xmlns:xlink="http://www.w3.org/1999/xlink">
 <defs>
  <style type="text/css">
   <![CDATA[
    .fil0 {fill:white}
   ]]>
  </style>
 </defs>
 <g id="Слой_x0020_1">
  <metadata id="CorelCorpID_0Corel-Layer"/>
  <path class="fil0" d="M80.42 0.02l-19.76 -0.03c-22.2,0 -36.55,14.72 -36.55,37.51l0 17.29 -19.87 0c-1.71,0 -3.11,1.39 -3.11,3.11l0 25.05c0,1.72 1.4,3.11 3.11,3.11l19.87 0 0 63.22c0,1.72 1.39,3.11 3.11,3.11l25.92 0c1.72,0 3.11,-1.39 3.11,-3.11l0 -63.22 23.23 0c1.72,0 3.11,-1.39 3.11,-3.11l0.01 -25.05c0,-0.83 -0.33,-1.62 -0.91,-2.2 -0.58,-0.58 -1.38,-0.91 -2.2,-0.91l-23.24 0 0 -14.66c0,-7.05 1.68,-10.62 10.86,-10.62l13.31 -0.01c1.71,0 3.11,-1.39 3.11,-3.11l0 -23.26c0,-1.71 -1.39,-3.11 -3.11,-3.11z"/>
 </g>
</svg>
