<?xml version="1.0" encoding="UTF-8"?>
<!DOCTYPE svg PUBLIC "-//W3C//DTD SVG 1.1//EN" "http://www.w3.org/Graphics/SVG/1.1/DTD/svg11.dtd">
<!-- Creator: CorelDRAW 2019 (64-Bit) -->
<svg xmlns="http://www.w3.org/2000/svg" xml:space="preserve" width="1.4392mm" height="1.4392mm" version="1.1" style="shape-rendering:geometricPrecision; text-rendering:geometricPrecision; image-rendering:optimizeQuality; fill-rule:evenodd; clip-rule:evenodd"
viewBox="0 0 143.92 143.92"
 xmlns:xlink="http://www.w3.org/1999/xlink">
 <defs>
  <style type="text/css">
   <![CDATA[
    .fil0 {fill:white}
   ]]>
  </style>
 </defs>
 <g id="Слой_x0020_1">
  <metadata id="CorelCorpID_0Corel-Layer"/>
  <path id="XMLID_505_" class="fil0" d="M14.24 4.23l106.99 0c10.16,0 18.47,8.31 18.47,18.47l0 106.99c0,10.16 -8.31,18.46 -18.47,18.46l-106.99 0c-10.16,0 -18.48,-8.3 -18.48,-18.46l0 -106.99c0,-10.16 8.32,-18.47 18.48,-18.47zm86.38 15.98c-3.57,0 -6.48,2.92 -6.48,6.49l0 15.5c0,3.57 2.91,6.49 6.48,6.49l16.27 0c3.56,0 6.48,-2.92 6.48,-6.49l0 -15.5c0,-3.57 -2.92,-6.49 -6.48,-6.49l-16.27 0zm22.81 44.88l-12.67 0c1.2,3.92 1.85,8.06 1.85,12.36 0,23.93 -20.03,43.35 -44.74,43.35 -24.71,0 -44.75,-19.42 -44.75,-43.35 0,-4.3 0.66,-8.44 1.85,-12.36l-13.21 0 0 60.81c0,3.15 2.57,5.71 5.72,5.71l100.23 0c3.15,0 5.72,-2.56 5.72,-5.71l0 -60.81zm-55.56 -17.22c-15.96,0 -28.91,12.54 -28.91,28.02 0,15.46 12.95,28 28.91,28 15.96,0 28.91,-12.54 28.91,-28 0,-15.48 -12.95,-28.02 -28.91,-28.02z"/>
 </g>
</svg>
