<?xml version="1.0" encoding="UTF-8"?>
<!DOCTYPE svg PUBLIC "-//W3C//DTD SVG 1.1//EN" "http://www.w3.org/Graphics/SVG/1.1/DTD/svg11.dtd">
<!-- Creator: CorelDRAW 2019 (64-Bit) -->
<svg xmlns="http://www.w3.org/2000/svg" xml:space="preserve" width="2.3282mm" height="3.8098mm" version="1.1" style="shape-rendering:geometricPrecision; text-rendering:geometricPrecision; image-rendering:optimizeQuality; fill-rule:evenodd; clip-rule:evenodd"
viewBox="0 0 232.82 380.98"
 xmlns:xlink="http://www.w3.org/1999/xlink">
 <defs>
  <style type="text/css">
   <![CDATA[
    .fil0 {fill:#FEFEFE}
   ]]>
  </style>
 </defs>
 <g id="Слой_x0020_1">
  <metadata id="CorelCorpID_0Corel-Layer"/>
  <path class="fil0" d="M138.18 194.72c-2.21,3.3 -7.82,8.19 -10.98,11.35l-113.48 113.48c-14.18,14.18 -18.55,30.03 -7.98,48.53 5.15,9 18.05,17.14 29.01,17.14 17.51,0 23.83,-5.6 35.15,-16.93 8.12,-8.12 15.7,-15.69 23.82,-23.81l94.87 -94.88c7.67,-7.67 15.87,-16.81 23.82,-23.81 5.07,-4.46 7.2,-5.14 11.4,-12.41 9.45,-16.38 4.91,-39.45 -10.62,-49.77 -4.8,-3.19 -19.09,-18.27 -24.22,-23.4 -16.06,-16.06 -31.57,-31.57 -47.63,-47.62 -6.55,-6.56 -77.97,-79.37 -83.82,-82.87 -5.57,-3.32 -11.87,-5.19 -18.21,-5.5l-3.75 0c-6,0.29 -11.91,2 -17.16,5.24 -3.78,2.32 -9.22,7.37 -11.64,11.43 -6.01,10.09 -8.64,23.3 -2.74,35.64 0.69,1.44 3.24,5.91 4.15,7.01 5.1,6.23 10.99,11.78 16.72,17.51 8.47,8.48 110.85,110.03 113.29,113.67z"/>
 </g>
</svg>
