<?xml version="1.0" encoding="UTF-8"?>
<!DOCTYPE svg PUBLIC "-//W3C//DTD SVG 1.1//EN" "http://www.w3.org/Graphics/SVG/1.1/DTD/svg11.dtd">
<!-- Creator: CorelDRAW 2019 (64-Bit) -->
<svg xmlns="http://www.w3.org/2000/svg" xml:space="preserve" width="2.1166mm" height="2.9632mm" version="1.1" style="shape-rendering:geometricPrecision; text-rendering:geometricPrecision; image-rendering:optimizeQuality; fill-rule:evenodd; clip-rule:evenodd"
viewBox="0 0 211.66 296.32"
 xmlns:xlink="http://www.w3.org/1999/xlink">
 <defs>
  <style type="text/css">
   <![CDATA[
    .fil0 {fill:#08345B}
   ]]>
  </style>
 </defs>
 <g id="Слой_x0020_1">
  <metadata id="CorelCorpID_0Corel-Layer"/>
  <path class="fil0" d="M22.79 120.87l0 -13.52c0,-65.31 86.91,-98.76 132.35,-53.54 24.9,24.79 25.27,37.01 25.27,67.06 0,17.27 -14.38,41.48 -24.17,50.13 -32.17,28.46 -75.27,28.35 -108.07,1.05 -10.41,-8.67 -25.38,-33.28 -25.38,-51.18zm24.77 -101.34c-6.7,12.66 -3.43,15.04 -17.71,20.58 -18.86,7.31 -7.31,10.03 -15.08,23.2 -5.3,8.97 -16.02,5.82 -12.75,22.02 4.69,23.17 -6.26,11.29 -6.26,28.78 0,5.95 7.67,9.99 7.96,18.02 0.24,7 -5.65,12.3 -0.4,19.28 5.14,6.83 8.98,2.36 12.78,14.42 3.21,10.16 -0.28,14.26 10.5,18.78 12.21,5.11 8.44,-1.71 15.76,11.26 5.76,10.22 5.04,9.55 18.69,10.58 17.13,1.31 7.2,3.5 18.1,9.13 8.76,4.52 12.17,-2.39 22.45,-2.39 9.01,0 12.76,6.13 20.98,3.09 10.72,-3.97 2.89,-8.18 17.4,-9.75 36.2,-3.93 4.68,-10.5 34.92,-21.37 11.32,-4.06 8.23,-4.68 10.99,-16.03 3.51,-14.41 6.65,-9.48 12.79,-16.69 6.19,-7.27 1.48,-9.22 0.9,-18.67 -0.63,-10.24 7.86,-12.87 7.86,-19.66 0,-11.15 -5,-9.75 -7.4,-17.25 -2.52,-7.87 3.82,-11.93 1.38,-19.65 -5.2,-16.46 -9.08,6.38 -18.75,-35.16 -21.3,-4.96 -17.99,-5.43 -27.03,-22.52 -39.57,0 -22.09,-11.25 -36.03,-11.25 -9.73,0 -9.07,4.5 -15.76,4.5 -8.95,0 -11.32,-4.5 -20.26,-4.5 -6.8,0 -7.34,5.8 -13.48,9.04 -6.55,3.45 -12.9,2.21 -22.55,2.21z"/>
  <path class="fil0" d="M38.55 296.5c14.15,0 48.9,-27.02 63.05,-27.02 18.39,0 44.34,25.29 58.92,27.02l2.9 0c5.1,-0.71 8.21,-5.65 8.15,-17.84l-0.16 -83.49c-12.24,4.43 -1.78,7.28 -12.83,14.3 -9.18,5.83 -13.23,0.66 -19.84,2.82 -5.57,1.81 -7.95,8.35 -16.14,10.78 -9.5,2.83 -14.36,-4.27 -21,-4.27 -5.73,0 -11.42,6.2 -19.38,4.71 -8.53,-1.59 -11,-8.04 -16.37,-10.63 -8.92,-4.3 -16.03,6.87 -26.52,-9.48 -5.61,-8.76 0.47,-5.33 -7.54,-8.23 0,18.02 0,36.03 0,54.05 0,11.65 -4.19,47.28 6.76,47.28z"/>
  <path class="fil0" d="M101.59 40.6c39.68,0 71.84,32.16 71.84,71.84 0,39.68 -32.16,71.84 -71.84,71.84 -39.68,0 -71.84,-32.16 -71.84,-71.84 0,-39.68 32.16,-71.84 71.84,-71.84zm-0.18 15.88l17.64 31.28 35.2 7.11 -24.29 26.44 4.12 35.68 -32.68 -14.93 -32.66 14.93 4.12 -35.68 -24.29 -26.44 35.2 -7.11 17.64 -31.28z"/>
 </g>
</svg>
