<?xml version="1.0" encoding="UTF-8"?>
<!DOCTYPE svg PUBLIC "-//W3C//DTD SVG 1.1//EN" "http://www.w3.org/Graphics/SVG/1.1/DTD/svg11.dtd">
<!-- Creator: CorelDRAW 2019 (64-Bit) -->
<svg xmlns="http://www.w3.org/2000/svg" xml:space="preserve" width="1.6932mm" height="1.6932mm" version="1.1" style="shape-rendering:geometricPrecision; text-rendering:geometricPrecision; image-rendering:optimizeQuality; fill-rule:evenodd; clip-rule:evenodd"
viewBox="0 0 169.32 169.32"
 xmlns:xlink="http://www.w3.org/1999/xlink">
 <defs>
  <style type="text/css">
   <![CDATA[
    .fil0 {fill:white}
   ]]>
  </style>
 </defs>
 <g id="Слой_x0020_1">
  <metadata id="CorelCorpID_0Corel-Layer"/>
  <path class="fil0" d="M74.55 0c-41.11,0 -74.56,33.45 -74.56,74.56 0,41.12 33.45,74.57 74.56,74.57 18.08,0 34.69,-6.47 47.61,-17.22l35.4 35.4c1.35,1.34 3.11,2.01 4.87,2.01 1.76,0 3.52,-0.67 4.87,-2.01 2.69,-2.69 2.69,-7.05 0,-9.73l-35.4 -35.4c10.75,-12.92 17.22,-29.53 17.22,-47.62 0,-41.11 -33.45,-74.56 -74.57,-74.56zm0 135.37c-33.52,0 -60.8,-27.28 -60.8,-60.81 0,-33.52 27.28,-60.8 60.8,-60.8 33.53,0 60.81,27.28 60.81,60.8 0,33.53 -27.28,60.81 -60.81,60.81z"/>
 </g>
</svg>
