<?xml version="1.0" encoding="UTF-8"?>
<!DOCTYPE svg PUBLIC "-//W3C//DTD SVG 1.1//EN" "http://www.w3.org/Graphics/SVG/1.1/DTD/svg11.dtd">
<!-- Creator: CorelDRAW 2019 (64-Bit) -->
<svg xmlns="http://www.w3.org/2000/svg" xml:space="preserve" width="3.8098mm" height="2.5398mm" version="1.1" style="shape-rendering:geometricPrecision; text-rendering:geometricPrecision; image-rendering:optimizeQuality; fill-rule:evenodd; clip-rule:evenodd"
viewBox="0 0 380.98 253.98"
 xmlns:xlink="http://www.w3.org/1999/xlink">
 <defs>
  <style type="text/css">
   <![CDATA[
    .fil0 {fill:#B2B2B2}
   ]]>
  </style>
 </defs>
 <g id="Слой_x0020_1">
  <metadata id="CorelCorpID_0Corel-Layer"/>
  <path class="fil0" d="M374.42 121.39l-119.06 -119.06c-3.1,-3.11 -8.12,-3.11 -11.22,0 -3.1,3.1 -3.1,8.12 0,11.22l105.51 105.51 -345.96 0c-4.39,0 -7.94,3.55 -7.94,7.94 0,4.39 3.55,7.94 7.94,7.94l345.96 0 -105.51 105.51c-3.1,3.1 -3.1,8.12 0,11.22 1.55,1.55 3.58,2.33 5.61,2.33 2.03,0 4.06,-0.78 5.61,-2.33l119.06 -119.06c3.11,-3.1 3.11,-8.12 0,-11.22z"/>
 </g>
</svg>
