<?xml version="1.0" encoding="UTF-8"?>
<!DOCTYPE svg PUBLIC "-//W3C//DTD SVG 1.1//EN" "http://www.w3.org/Graphics/SVG/1.1/DTD/svg11.dtd">
<!-- Creator: CorelDRAW 2019 (64-Bit) -->
<svg xmlns="http://www.w3.org/2000/svg" xml:space="preserve" width="1.9472mm" height="1.1852mm" version="1.1" style="shape-rendering:geometricPrecision; text-rendering:geometricPrecision; image-rendering:optimizeQuality; fill-rule:evenodd; clip-rule:evenodd"
viewBox="0 0 194.72 118.52"
 xmlns:xlink="http://www.w3.org/1999/xlink">
 <defs>
  <style type="text/css">
   <![CDATA[
    .fil0 {fill:white}
   ]]>
  </style>
 </defs>
 <g id="Слой_x0020_1">
  <metadata id="CorelCorpID_0Corel-Layer"/>
  <path class="fil0" d="M188.76 102.81c-0.52,-0.88 -3.76,-7.91 -19.34,-22.37 -16.31,-15.15 -14.12,-12.69 5.52,-38.87 11.97,-15.94 16.75,-25.68 15.26,-29.84 -1.43,-3.97 -10.23,-2.92 -10.23,-2.92l-29.26 0.17c0,0 -2.17,-0.3 -3.78,0.67 -1.57,0.95 -2.58,3.14 -2.58,3.14 0,0 -4.64,12.34 -10.83,22.83 -13.03,22.14 -18.25,23.31 -20.38,21.93 -4.96,-3.2 -3.71,-12.87 -3.71,-19.74 0,-21.46 3.25,-30.4 -6.35,-32.72 -3.18,-0.76 -5.52,-1.27 -13.66,-1.36 -10.45,-0.11 -19.3,0.04 -24.3,2.48 -3.33,1.63 -5.9,5.27 -4.33,5.48 1.93,0.26 6.32,1.18 8.64,4.35 3.01,4.07 2.9,13.25 2.9,13.25 0,0 1.72,25.26 -4.03,28.4 -3.96,2.15 -9.37,-2.24 -21,-22.34 -5.95,-10.28 -10.45,-21.66 -10.45,-21.66 0,0 -0.87,-2.12 -2.41,-3.25 -1.88,-1.38 -4.51,-1.82 -4.51,-1.82l-27.82 0.17c0,0 -4.18,0.13 -5.71,1.94 -1.36,1.62 -0.11,4.95 -0.11,4.95 0,0 21.79,50.97 46.45,76.66 22.62,23.55 48.31,22.01 48.31,22.01l11.63 0c0,0 3.52,-0.39 5.31,-2.33 1.65,-1.78 1.59,-5.11 1.59,-5.11 0,0 -0.23,-15.62 7.03,-17.92 7.14,-2.26 16.32,15.1 26.04,21.78 7.36,5.05 12.94,3.94 12.94,3.94l26.01 -0.36c0,0 13.61,-0.84 7.16,-11.54z"/>
 </g>
</svg>
